<?xml version="1.0" encoding="UTF-8"?>
<svg viewBox="0 0 735.5 844.5" xmlns="http://www.w3.org/2000/svg">
 <g fill-rule="evenodd" stroke-width="0">
  <path d="m12.25 512q-0.25-1 1.25-0.75l1.5 0.25 10 1 10 1-11.25-0.25q-11.25-0.25-11.5-1.25z"/>
  <path d="m12.75 529.5q0.75-1.5 2-0.75l1.25 0.75 8.5 0.5 8.5 0.5-10.5 0.25q-10.5 0.25-9.75-1.25z"/>
  <path d="m299 10.5q3 0 5.25 1.75l2.25 1.75v5q0 5-1.75 7.25l-1.75 2.25 2.25 2.25q2.25 2.25-0.25 80.25t-2.25 80l0.25 2 4.25 3.5q4.25 3.5 7.5 8.25l3.25 4.75 3.25-2.25q3.25-2.25 9-9.5t12.5-9.5l6.75-2.25 1.25 2.25q1.25 2.25 4 3.5t3.5 2.25 6.5-0.5l5.75-1.5 1 4q1 4 3.25 4.25t5-3.5l2.75-3.75-2.5 5q-2.5 5-3.75 7.5l-1.25 2.5 4.25-2.5q4.25-2.5 3.75-0.5t1.25 5.5 6.25 2.5 9.25-4l4.75-3 1.5 2.5q1.5 2.5 2.75 3.75t4.75-0.75 8-6.25l4.5-4.25-3 6.25q-3 6.25 2.25 7t7.5 2.5 5.75-0.25l3.5-2 0.5 3q0.5 3 2 5t4.5 0.5 4.5-1.5h1.5l1 2.5q1 2.5 6 4t7 0.25l2-1.25-2 4.75q-2 4.75-0.25 5.5t4 3 2.25 4.75 3.75 4.75l3.75 2.25 0.25 3.25q0.25 3.25 0.5 5.5t1.75 3.75 2 5 2.75 3.75 6.25-1.25l4-1.5-2.5 4q-2.5 4-4 6t-2 4.25 2.25 3.25 5 0.25 9-6.5 6.75-7.25v-1.5l2.5 1.5q2.5 1.5 4.25 2.75t6.25-1.25 3-6.25l-1.5-3.75 1.75 2.5q1.75 2.5 2.75 6l1 3.5 0.75-4.25q0.75-4.25 2.25-1.75t6.25 1.25l4.75-1.25-2.25 3.75q-2.25 3.75-1.75 5.5t-3 5.5-4.5 6l-1 2.25 2.75 0.5q2.75 0.5 1.75 3t-4 8.5-5.5 9.5l-2.5 3.5-0.75 3.75q-0.75 3.75-2.75 4l-2 0.25-0.5 3.75q-0.5 3.75-1.75 6t-4.5 4.25l-3.25 2-0.75 5-0.75 5-5 4.5-5 4.5-1.25 4.5-1.25 4.5-2.75 2q-2.75 2-5 5.75t-4.5 5.5l-2.25 1.75 2.5 9q2.5 9 7.5 33.5l5 24.5 3.25 0.25q3.25 0.25 58.75 1.25l55.5 1 3.75 5.75q3.75 5.75 10.25 24.75t21.5 69 24 73.5 8.25 37.5l-0.75 14-7.5 0.25q-7.5 0.25-30-0.75t-62-1h-39.5l1.75 5.25q1.75 5.25 7.75 38.25t5.5 52l-0.5 19-0.25 0.25q-0.25 0.25-19.25 0.25t-176.5-2.5-159.5-2.5-94-2.75l-92-2.75v-1.5q0-1.5 11.5-1.25l11.5 0.25-4-1.5q-4-1.5-5.5-3.5t53-1l54.5 1-25-2q-25-2 24.5-3.25l49.5-1.25-0.5-0.75q-0.5-0.75-36.5 0.75t-77.5-0.5l-41.5-2-4-1.25q-4-1.25 60 0l64 1.25-64.5-3q-64.5-3-64-3.5t18.5-0.5h18l-21.75-2.75q-21.75-2.75-22-4.25l-0.25-1.5 124.5 1.25 124.5 1.25v1q0 1 78.5 2.25l78.5 1.25v-1q0-1-8.5-1.25l-8.5-0.25v-2q0-2-1-4t2-4-3-2h-6l10-1 10-1-7-0.5q-7-0.5-50-1.5l-43-1 7.5-0.5q7.5-0.5 104 0.25t96.75-3.75l0.25-4.5h1.5q1.5 0 1.5 9.5v9.5l-3-3.5q-3-3.5-4.25-3.75t-3 0-1 8.75l0.75 8.5 2.75-1q2.75-1 3.5 0t3.25 1 3.5 0 8.25-2.5l7.25-2.5 0.75 2.25q0.75 2.25 5.75 2.5l5 0.25-5.25-29.5q-5.25-29.5-14.75-77.5t-15.75-69l-6.25-21 0.25 4.5 0.25 4.5-3.25-4.5q-3.25-4.5-7-3.5t-5.75 1.5-2 3.5v3l-2.25-4.5-2.25-4.5 10.25 49.5q10.25 49.5 12.75 66.5t3 24l0.5 7-3.5-17.5q-3.5-17.5-13.75-73.5t-68.5-58.5l-58.25-2.5-0.25 1q-0.25 1-44.75 1.5l-44.5 0.5-2-1.25q-2-1.25-38-3.5l-36-2.25-1.5 0.75q-1.5 0.75-97-0.25t-97.75-1.75l-2.25-0.75-0.25-4q-0.25-4 135.25-1t135.25 2l-0.25-1-0.75-0.75q-0.75-0.75-0.75-3.25t-9-3l-9-0.5 4-2.5 4-2.5 5-0.25 5-0.25-0.5-1.25q-0.5-1.25-2-3.75t-2-4.5 1-2.75 1-3.5-0.5-5.25 0.5-3l0.5-0.5-0.5-0.5q-0.5-0.5-15.75 0.25t-15.5 4 8.75 3.75l9 0.5-12 1-12 1-3 1.5q-3 1.5-6 2.5l-3 1 13.5 0.5 13.5 0.5-44.5-1-44.5-1 6.5 0.25 6.5 0.25-2-1.25q-2-1.25-15-2.25l-13-1 5-1.5q5-1.5-7.5-2l-12.5-0.5 5.5-1.5q5.5-1.5-7-2l-12.5-0.5 7-1.5q7-1.5 1.5-3.5t-26.5-3l-21-1 5-1q5-1 31.5-1.75l26.5-0.75-6-0.25-6-0.25 2-2.75q2-2.75 0-4t-6.5-1.75l-4.5-0.5-0.5-2q-0.5-2-1-4t-5-2h-4.5l5-2q5-2 3.25-3.75t-2-2.75-9.75-1.25l-9.5-0.25 10.25 0.25q10.25 0.25 25 15t19.25 14.25l4.5-0.5 0.75-2.25q0.75-2.25 6.25-7.25t5.25-5.25l-0.25-0.25 4.5 2.5q4.5 2.5 13.25 9.25l8.75 6.75 2.75-2.25q2.75-2.25 6.5-2l3.75 0.25 5.75-2.25q5.75-2.25 9.25-4l3.5-1.75-2.5-5.25q-2.5-5.25-4.75-6t-3.75-5.25-3.25-3.5l-1.75 1-0.75-4q-0.75-4-2.5-6.75t-4.75-4l-3-1.25-1.5-3.25q-1.5-3.25-3.5-4.5t-3-5-4-5l-3-1.25-1.25-3q-1.25-3-2-6.25t-3.25-5.5-3-5.75-1.5-3.5-4.25-9-3.25-12.5-0.75-4-4-15-8.25-33.5-2.5-45 5.5-35l3-9 1.5 1q1.5 1-2.5 19.5t-6 32.5l-2 14 2 5q2 5 2.5 7.5t1 5 2.5 6 2.25 5.5 1 5 0.25 5l-0.5 2 3.75-0.5q3.75-0.5 2.5 5t-0.75 8 2.25 2.25 1.5 2 2 2.5l2.25 0.25 0.25 3.25q0.25 3.25 0.25 7.25t-1 6.5l-1 2.5 2.25 0.25q2.25 0.25 2 2.5t0.5 4.5 0.25 2.75l-0.5 0.5 3.75 1.25q3.75 1.25 3.5 4.5t-0.75 5l-0.5 1.75 9-4.75q9-4.75 17.5-10.25l8.5-5.5-2.5 0.5q-2.5 0.5-8.5 3l-6 2.5 3.5-5.25q3.5-5.25 5-7t1-3.75 0.5-4.5 1-5 3.5-4l3.5-1.5-1-1.75q-1-1.75-3.5-2.5t-4-0.75h-1.5l4-4.5q4-4.5 3-6.25t-1-4.5-3-5.75-2-5-1.5-2.5l-2.5-0.5v-2.25q0-2.25 0-3.25t-1-2.5-1-2.5v-1l-0.5-1.5q-0.5-1.5-0.5-2.5t2.5-3.25 3-3.75-3.5-2l-4-0.5v-1.75q0-1.75 0-2.75t4-3.5 4-3.5-3.5-1.75l-3.5-0.75-0.5-1.75q-0.5-1.75-0.5-2.75t-0.5-2.75l-0.5-1.75-0.5-1.75q-0.5-1.75-0.5-2.75t2-3.25 1.5-4.5 1-4.5 2-3.75 1-2.5l0.5-1 1.25 1.25q1.25 1.25 5 33.5t4 34 2.75 16.75 9.25 37.5l6.75 22.5 0.25-2q0.25-2 2.25-1t2.25 4.75-0.5 5.5 2 8.25 17.75 5.75l15-0.75-2.5 1.5q-2.5 1.5-13 2l-10.5 0.5 8.5 3.25q8.5 3.25 8.5 4.75v1.5l8.25-4.5q8.25-4.5 10.75-10.5t2-24-7.25-77l-6.75-59 2.75 1q2.75 1 3-47.75t-11.25-52.75-20-1.5-13.25 8.75-6.5 10.5-5.25 4.75l-3.5 0.5 2.5-2.5q2.5-2.5 1.5-4t-9.5-1-17.5 1.5-15.5 7-10.75 13.75-10.75 17.75l-6.5 10 3.75-7.5 3.75-7.5-15 6.25q-15 6.25-20.25 14.5t-9.5 19.75l-4.25 11.5-2.5 0.25q-2.5 0.25-15.75 11l-13.25 10.75 4.5-6q4.5-6 12.75-13.25t13-15.5 11.25-18.75 12.25-13.25 14.75-6.75 14.5-10.5 11.75-14.75 10-10.5 16.25-1.75 13 0.5 8.25-3.75 16-9.5 19.25-5.75 17.5 3.25l6.5 3.25 1.5-74.5q1.5-74.5 4-74.5h2.5l-1.75-2.5q-1.75-2.5-1.75-5.5v-3l3.75-3.25q3.75-3.25 6.75-3.25zm-240 768q13 0 27 0.5t20 1l6 0.5-10 0.5q-10 0.5-33-1l-23-1.5h13zm38 5.5q16-0.5 16 0.5t-3.5 1h-3.5l-12.5-0.5-12.5-0.5 16-0.5zm109-11l26-0.5-2.5 0.5q-2.5 0.5-13.5 1t-38.5 2-31.5 1l-4-0.5 16.5-1q16.5-1 19-1.5t28.5-1zm-18.5 9.25l26.5-0.75-0.5 0.5q-0.5 0.5-22.5 1.5l-22 1-4 0.25q-4 0.25-4-0.75t26.5-1.75zm-11.75-287.75q2.25-1.5 1.75 0.5t-2.5 3.25-4.5 1.75 0.25-1.75l2.75-2.25 2.25-1.5zm2.5 2.75q2.25-2.25 2.5-1t-0.25 1.75l-0.5 0.5-2.75 2.25q-2.75 2.25-2 0.5t3-4zm8.5 3.25q1.25-0.5 0 1.5t-3.25 3-1.25-0.25 1.75-1.5 1.25-1.25l0.25-1 1.25-0.5zm-2.75-2.25l1-0.25-0.5 1.25q-0.5 1.25-1.5 1.5l-1 0.25 0.5-1.25q0.5-1.25 1.5-1.5zm5 12q1-0.25 1 0.75v1l-3.25 0.5q-3.25 0.5-1-0.75t3.25-1.5zm-0.25-7.25q0.25-1 1.25-1t0 2.25-2 2.25h-1l0.75-1.25q0.75-1.25 1-2.25zm41.25-99.25l2-0.75-1 2.5q-1 2.5 0.75 2.5t2.5 4.25 2 5 1 2.5 0.75 2 2.75 6.75 3.25 10 1.25 4.5 1 1.5 1.75 2l0.5 1.5h1q1 0 1.25 1.5t3 1.5 3 1 2.75 0.5 3 0.25 1.5 0.25 5-1.25l4-0.75 1.25 5.5q1.25 5.5 0.75 12.5l-0.5 7-0.25-2q-0.25-2-1.25-2t-1-1.75-1.5-1.5-1.5-1.25-1.75-2-1.5-2-1.75-1-1.5-0.75-1.5-1.5-2-1.25-3.5-1.75l-3.5-0.75-3.5 2.5q-3.5 2.5-6 3.75t-2 0-1.5-0.75-7 3-6.5 3.5-2.5 1h-1l-0.5-1.25q-0.5-1.25 3.5-3t7.5-4.25 1-2-9 3.5-7 1.75 3.5-3l4-1.75 2-1.5q2-1.5-1.25-0.75t-6 2.5-4 1.5-1.5-1.25 3.75-2.75 6-3.25-1-1-7.25 2.25-4 0.5 7.25-5.25 4-3.5-7 3-6.25 2.25-2.5-1.25 2.5-2 4.5-1.75l1.75-0.75 3.5-2.5q3.5-2.5 0.5-2t-7.25 2.75-6 3-2 0.5-0.5-1.75 4.5-3.5 8-4.25 4.25-2.5 0.5-1-6.25 1.5-8.5 4.5-4.25 2.25h-1.5l-0.25-0.25q-0.25-0.25-0.5-1.75t3.75-2.75 6.5-2.75 5.5-3.5 0-1.5-10.5 4-8 2.25 3.5-3 6.5-3.25 7.25-4.75 4.5-4-3.75 1.25-10 5-8.75 4.25-2 0 1.75-1.75l1.5-0.5 2-1.5q2-1.5 7-4t7.25-3.75 2.5-2.25l0.25-1-2.5 1.25q-2.5 1.25-11 5.75t-10 5-1.75-0.75 2.5-3 7.75-4.25 8-5 1-2-12 5.5-10.5 3.75 2.5-2.5l3-1.25 2-1q2-1 9.75-5.75t9.5-6 4.25-1.75l2.5-0.5-3.25 2.75q-3.25 2.75-3.5 3.75t2.5-0.5 6.5-4.25 5.75-3.5zm-31.5 106.75q2.5 0 4.75 1.75t2.5 3.5-1.75 3-2.25-0.25-0.5-1.25-1.75 0.25h-1.5l0.75-1.25q0.75-1.25 0-1.5t-2.75 1.25-2.75 0.75 1-3.5 4.25-2.75zm22 258h13.5l-10.5 0.5-10.5 0.5-3-0.5q-3-0.5 10.5-0.5zm-1.25-265.75q3.25-1.75 3.5-0.75t2.25 1 2 1.5 1.5 1.5 1.5 1 1.75 1 1.5 1.25-4.75 4.25-7 3h-2.5l3-1.25q3-1.25 3-2.25t1.5-1.75l1.5-0.75-2 0.5q-2 0.5-5.5 1.5t-1.5-0.25 1.5-2-3 0.25-3.5 0.5 0.5-2-1.25-1.25 0-1.5 6-3.5zm20.75 273.75h11l1.5 0.5 1.5 0.5h-32l3.5-0.5 3.5-0.5h11zm-6-310q2.5-1.5 1.75 0.75t-2 3l-1.25 0.75-2.25 1.25q-2.25 1.25-3.75 1.5t-1.5-1.25 3.25-3 5.75-3zm-5 28.75l1-0.25-1 1.75q-1 1.75-2 2l-1 0.25 1-1.75q1-1.75 2-2zm4.5-22.5q2.5-0.75 2 0.5t-3.25 3-1.5 2.25 1.25 1.5 2.75 0.5 2.5 0.75-1.25 1.5-1 1.25 2 1.75 1 1-1.5 1l-0.5 0.75-2.25-3.25q-2.25-3.25-2.5-4.25t-1.5-1.5-2-2.5 1.25-2.75l2-0.75 2.5-0.75zm0.75 39.25l2.75-2v1.5q0 1.5 2 0.25t1.75 0-1.5 2.5l-1.25 1.25h-1q-1 0-3.25-0.75t0.5-2.75zm9.75 272.5q12 0 13 0t9.5 0.5l8.5 0.5-0.5 0.5q-0.5 0.5-19 0t-21-1l-2.5-0.5h12zm-5-285l0.5-0.5-0.75 2.75q-0.75 2.75-1.75 3t0.25-2.25 1.75-3zm13.5-40.25l1.5-0.25v1q0 1 2.75 2t5 3.25 2.75 3.5 1.75 1.75 1.5 1.5 1.5 1.5 3.75 4l2.5 3.5 0.75 2.5q0.75 2.5-0.25 2.5t-1 1.5 1 1.5 0.5 2.5 0.5 2.5 0.25 2.5 0 3.25l0.75 0.75-2.5 1.75q-2.5 1.75-2.5 0.75t-2.75-0.5-2.5-0.5-3-0.5-1.5-0.5 1.75-2-3.5 0.25-5.25 2l-1.75 0.75 0.25-1.25q0.25-1.25 3.5-3t3-2.5-4 1-4 0.75 2.25-2.25 3.5-2.25-1-0.5-3.5 1.5-4 1h-2.5l3-2q3-2 4-2.25t0.5-1-3 0.25-3.75 0.25 0.5-1.5 5.25-3.25 2-2.5h-1.5l-2.5 1.5q-2.5 1.5-5 2.75t-2.5-0.25 3-2.5 3-2-4.25 0-1-1.25 4.25-2.5 1-1.25-2.5 0.25-5 2.5-2.5-0.25 2-2.75 1.5-1.75-2.75 0.75-2.5-0.25 0.75-1.5 1-1-1.75-1-2-0.25l-0.25-0.25 5.5-4.5q5.5-4.5 6.5-4.75t1.5-1.5 2-1.5zm-11.75 43.5q0.75-0.75 0 2.5t-2.25 4l-1.5 0.75 1.5-3.25q1.5-3.25 2.25-4zm1.25-10.75q2-0.5 2.5 0l0.5 0.5-2 0.5q-2 0.5-2.5 0l-0.5-0.5 2-0.5zm5 6.25q2-0.25 2 1.25t-1 1.25-2-1.25l-1-1 2-0.25zm1.25 7.25q-0.25-1.5 4.75 0.25t0.5 1.75h-4.5l-0.25-0.25q-0.25-0.25-0.5-1.75zm8.75 267q8 0 25 1l17 1-22-0.5q-22-0.5-25-1l-3-0.5h8zm28.5-326.5q3.5-0.5 6 1.5t3.25 3.25l0.75 1.25v5l-2 2.5q-2 2.5-3.25 3.25t-5.25 0.25l-4-0.5-1.75-2.75q-1.75-2.75-1.75-6.25v-3.5l2.25-1.75q2.25-1.75 5.75-2.25zm7.5 20q0-1 1-1h1l-1.25 18q-1.25 18-2.75 31t-2 12-1 10.5-1 13.5l-0.5 2-1-10q-1-10-1.5-41t1.75-32.25 4.75-1.5 2.5-1.25zm-1.5-118.75q3.5-0.25 4.5 3.75t-3.75 3.5-4-3.25l0.75-2.75-0.5-0.5q-0.5-0.5 3-0.75zm2 11.25q5.5 0 5.75 0.25t-0.5 2l-0.75 1.75-5-0.25q-5-0.25-5.5-1.5l-0.5-1.25 0.5-0.5q0.5-0.5 6-0.5zm-2.75 23.5l-0.75-9h3.5q3.5 0 3 35.25t-4.5 34.5-3.25-2.75l0.75-2 1.5-4q1.5-4 1-23.5t-1.25-28.5zm1.75-75q3.5-1 3.5 1t-3.5 2h-3.5v-1q0-1 3.5-2zm185.25 87.5l3.25-3.5 4.25 19.5q4.25 19.5 11.75 49t9.25 39l1.75 9.5-1.75-1.5q-1.75-1.5-3.75-0.5t-4.25 1.25-3-2.5-2.75-11.75l-2-9 1.75 12 1.75 12-1.75-2q-1.75-2-2.25-4l-0.5-2h-2q-2 0-4-2t-2.75 3.75-65.25 5.25l-64.5-0.5 5.5 1q5.5 1 124 3t124.5 2.5l6 0.5-4.5 0.25q-4.5 0.25-4.5 1.25t-5.5 2.25l-5.5 1.25 7 1.5 7 1.5-1.5 0.75q-1.5 0.75 14-0.25t13.25-4-2-4.25l0.25-1.25 3.75 1.75q3.75 1.75 10.25 22.75l6.5 21-1.75-0.75q-1.75-0.75-35.75-1.75t-34.5-1-144.5-4.25l-144-4.25 27.5 0.25 27.5 0.25-21.5-3-21.5-3-5-2.25q-5-2.25-4.75-4.25t0.5-8.5 3.25-6.75l3-0.25-2.5-0.25q-2.5-0.25-1.75-6.75l0.75-6.5 0.25 0.25q0.25 0.25 21.25 0.25h21l1.5-1.25q1.5-1.25 2-2t13-2.75 18.5-5.5l6-3.5 10-3q10-3 22-13t24.75-25.75 19-25 9-12.5l2.75-3.25v7.5q0 7.5 5.5 34.5l5.5 27v-12q0-12-2.75-38t-1-27.5 5-5zm-172.75-196q1 0 2.25 3.25t2.75 4.25 1.75 7l0.25 6h1.5q1.5 0 1.75-5l0.25-5 1 1.5q1 1.5 2.75 5.75t4 6.5 3.25 4.25 0.75 5l-0.25 3h1.75q1.75 0 2.75 3t6.25 10.25 7.5 9 2.75 4.25 0.5 3.5v1l1.75-1.5q1.75-1.5 3.75 2.75t3 4 2.25 4.25 3 4l1.75-0.5-0.75 6.5q-0.75 6.5-1.25 8.5l-0.5 2 1.25-0.5q1.25-0.5 3 4t4 10.75l2.25 6.25 2.75 1.25q2.75 1.25 5.25 4.25t13.75 11.75 14.25 11.25 8.75 7.25l5.75 4.75 2.5 9q2.5 9 3 18.5t-1 10l-1.5 0.5-1.5 3q-1.5 3-2.5 6t-3 9.5l-2 6.5-0.5-4q-0.5-4-2-3t-2.5 0.5-2.25-1.75-1.5-1.5l-0.25-0.25-2.5 7.5q-2.5 7.5-4.5 9.5t-2 6.5 0.25 6l0.25 1.5-12 3.75q-12 3.75-18.5 4.75t-15.25-1.25-10.25-2.75-3-0.5-3.25-0.25-3.75 0-2.5 2.5-9.5 2.5l-9 0.25v-1q0-1 11-4.25t13-4.25l2-1h-5.5q-5.5 0-10.5 0.75t-3.5-21.5l1.5-22.25 2.5-0.5q2.5-0.5 9.5-0.75l7-0.25-9.5-1.5q-9.5-1.5-11.25 0.5t-2.75 5-3.25 23.25-5.75 18-5.25-1.75-1.75-19v-19.5l4.25-4.75q4.25-4.75 23.75-13.75t24.75-10.25 5.5-4 5.25-5.75 5-5v-2l-2.75 2.75q-2.75 2.75-4.25 4.25l-1.5 1.5 1.5-5q1.5-5 2.75-7.75t-1-2-5.25 2.75-4 2-3 4.5-2 4 0-4.5v-4l-2 4q-2 4-3 5t-2 1-2-1.5-1.5 4.5l-0.5 6-0.5-1q-0.5-1-0.75-14.5t-2.75-12.5-3.25 4.5l-0.75 3.5v-9.5q0-9.5-0.5-8.5l-0.5 1-0.5 2q-0.5 2-1.5-1t-1-11-1-7.5-2.75 1-2.75 0.5h-1l0.25 7.5 0.25 7.5-1-4.5q-1-4.5-2.5-6.5t-2.5 0-1.5-6.5l-0.5-8.5-0.5 9q-0.5 9-1.5 8.5t-1.5-13.5l-0.5-13-1 5q-1 5 0.5 18t2 18l0.5 5-3-11-3-11-1.5 0.5q-1.5 0.5 0-8t1.25-15-2.75-6.25-6-0.25l-3.5-0.5 2.75-1.25q2.75-1.25 4.25 0.25t2.75-8.5 1.5-17.5 1.5-37.75l1.25-30.25h1zm-15 125q0-10.5 2-10.5t2.25 3.5l0.25 3.5-0.25 7.5q-0.25 7.5-1.25 7.25l-1-0.25-1-0.25q-1-0.25-1-10.75zm4.5-88h1.5l0.25 0.25q0.25 0.25 0.25 15.75t0.25 17.25 0 2-0.5 6.25-2.75 6h-2.5l1-23.75q1-23.75 2.5-23.75zm6.5-204.25q2-0.25-0.75 100.75t-3 101.25-2.25 0.5l-2 0.25-0.25-12q-0.25-12 1.25-61.5t1.5-50 0-2 1.75-39.25l1.75-37.75 2-0.25zm-6.25 468.75q0.75-4 1-3.75t2.25 0.75l2 0.5-1 1q-1 1-1.5 1.5t4 2.5-1.5 1.75-5.25-4.25zm9.25 282q10-0.5 20 0.5l10 1-20-0.5-20-0.5 10-0.5zm-6.5-768.25q2.5-0.25 4.25 1l1.75 1.25 0.5 3q0.5 3 0.25 4t-4 0-4.5-5 1.75-4.25zm60.25 461.5q4.75-2.25 5-0.75t1.75 1.25l1.5-0.25 0.25-0.25q0.25-0.25 0.5 0.75t-3.25 2.25-10.5 3.75-20 5-25 2.75-12-0.75 7.5-1.25l7.5-0.25-3.5-1q-3.5-1 10-2.5t24.5-4 15.75-4.75zm-56.75-171.75h1l-0.25 0.25q-0.25 0.25-0.5 2.75t-1.75 2.5-0.5-2.75 2-2.75zm36-98.25q1-0.25 1 0.75t-1.25 1.5l-1.25 0.5 0.25-1.25q0.25-1.25 1.25-1.5zm8 35.25q8 0 22 3t26.25 8.75 20.75 13.25 13.5 14 8 11.5 7.5 14.5 7.5 26 2.75 31.5l-0.25 15h-1.5q-1.5 0-2.75 15l-1.25 15-3 2.5q-3 2.5-6.5 6t-16.75 17.25-19.75 18.25l-6.5 4.5 6-7.5 6-7.5 5.25-3.75q5.25-3.75 9.25-9.75t6.5-13.5 3-28.5-1-40-5-31-11.5-24.5-17.25-21.25-21.75-15.25-20-8.5-13.5-3l-6-1 1-0.5q1-0.5 9-0.5zm-4-40.75l2-0.25-2 1.25q-2 1.25-2 0.25t2-1.25zm4.5-6.5l1.5-0.25-1 1.75q-1 1.75-2.5 2l-1.5 0.25 1-1.75q1-1.75 2.5-2zm0.5 23l1-0.25-0.5 1.25q-0.5 1.25-1.5 1.5l-1 0.25 0.5-1.25q0.5-1.25 1.5-1.5zm2 244l1-0.25v1.5q0 1.5-1.5 1.5h-1.5l0.5-1.25q0.5-1.25 1.5-1.5zm1-257l1-0.25-0.5 1.25q-0.5 1.25-1.5 1.5l-1 0.25 0.5-1.25q0.5-1.25 1.5-1.5zm-2 30.75v-1h3v1q0 1-1.5 1t-1.5-1zm3-13.75l1-0.25v1.5q0 1.5-1.5 1.5h-1.5l0.5-1.25q0.5-1.25 1.5-1.5zm2-3.75q1 0 1.5 0.5l0.5 0.5-1.75 0.25q-1.75 0.25-1.5-0.5t1.25-0.75zm3.5-14h1.5l-1 1.5q-1 1.5-2.5 1.5h-1.5l1-1.5q1-1.5 2.5-1.5zm-0.25 18q1.25-0.5 1.5 0.75t-1.25 1.5l-1.5 0.25v-1q0-1 1.25-1.5zm-0.25 9.5v-1h3v1q0 1-1.5 1t-1.5-1zm3.5-32.75l1.5-0.25-1 1.75q-1 1.75-2 2l-1 0.25 0.5-1.75q0.5-1.75 2-2zm3 5l1.5-0.25-1 1.75q-1 1.75-2.5 2l-1.5 0.25 1-1.75q1-1.75 2.5-2zm-1 10l1.5-0.25-0.5 1.25q-0.5 1.25-1.75 0.5t-1-1 1.75-0.5zm-1.5 22.25v-1.5l1.25 1q1.25 1 0 1.5l-1.25 0.5v-1.5zm8.5-41.25q1.5-0.25 1 1t-1.5 1.5-1 2-0.5 2.25-2.5 0.75-1-1.5 2-2 1.5-2l0.5-1.75 1.5-0.25zm-4.75 15.25l1.25-0.5v3l-1.25-1q-1.25-1 0-1.5zm0.25 21q1 0 1 1t-1.5 1.25l-1.5 0.25 0.5-1.25q0.5-1.25 1.5-1.25zm3.5-26.25l1.5-0.25-1 1.75q-1 1.75-2 2l-1 0.25 0.5-1.75q0.5-1.75 2-2zm-1.25 10q1.25-1.25 1.5 0t-1.25 1.25h-1.5l1.25-1.25zm2.25 8l1.5-0.25v3l-1.75-1q-1.75-1-1.5-1.25t1.75-0.5zm-1 13.5q1.5-0.75 1.5 0.25t-1.5 0.75l-1.5-0.25 1.5-0.75zm46 550.25l8.5-0.5 0.5 0.5q0.5 0.5-9 1.5t-28.5 0.5l-19-0.5 8-0.5q8-0.5 19.5-0.5t20-0.5zm-45.5-496q-0.5-6 2-2.5t3 9.5 0 8.5l-0.5 2.5-1-8-1-8-0.5-0.5q-0.5-0.5-1 2t-1-3.5zm2-80.75l1-0.25-0.5 1.25q-0.5 1.25-1.5 1.5l-1 0.25 0.5-1.25q0.5-1.25 1.5-1.5zm-0.25 9.5q0.75-0.75 2 0l1.25 0.75-1 0.5q-1 0.5-2 0l-1-0.5 0.75-0.75zm2.75-13.5l1.5-0.25-0.5 1.25q-0.5 1.25-2 1.5l-1.5 0.25 0.5-1.25q0.5-1.25 2-1.5zm2.75 255q0.25-0.25 0.5 1.25t-2.25 2.75-2.25 0 2-2.5l1.75-1.25 0.25-0.25zm-1.25-246l2-0.25-0.5 1.25q-0.5 1.25-2.25 0.5t-1.5-1 2.25-0.5zm-1 14.25h2l-1.5 0.5q-1.5 0.5-2 0l-0.5-0.5h2zm-0.5 8.75l-0.5-1.25 1.75 1q1.75 1 0.5 1.25t-1.75-1zm3-14l1.5-0.25-0.5 1.25q-0.5 1.25-1.75 0.5t-1-1 1.75-0.5zm-2.25 64.75q-0.25-1 7.75 0.25t15 4.25 9 5 4.5 3 3 1 4 2.5 4.75 3.75l1.25 1.25 1.25 3q1.25 3-0.25 3.25t0.25 1.5 2 2.25-1.25 1.25l-1.5 0.25 1.75 2.75q1.75 2.75 2 3.75t-0.75 1-0.25 4-0.25 3l-1-1 0.5 1.5q0.5 1.5 2 5.5t1 5-1.5 0.5-0.5 3 0 3-0.25 1.75l0.25 2.25-1 0.25q-1 0.25-2.25-2.25t-3.75-6-3.5-5l-1-1.5-0.75 1.75q-0.75 1.75-2 1t-3.25-3.75-2.75-1.75-2 0.5-2.5-4.75l-1.25-4-3.25-1q-3.25-1-3.5-2t1.25-1.25-1.25-2-4-5.25l-1.25-3.5 2-0.25q2-0.25 3 0t1.5 1.5 7.5 3.25l7 2-3.5-2.5q-3.5-2.5-1.25-3.25t0.25-2.75-3.75-2.75-3.75-1.75-8-1.75-6-2.25 2-1.75-1.5-1-3.5-1.75 5-0.25 7.75 1.5l2.75 0.75-1.75-1.25q-1.75-1.25-8.5-2.5t-7-2.75 7.25 0.75 12 3.25 0.5-1-9.5-3.5-9-1.75-4-1.5 4.5-0.75 13.25 2.75 6 1-6.75-2.75-9.5-2.5-7.25-1.25-2.5-1.25zm3.25-77.75q1.5-0.25 1.5 1.25t-2 1.5h-2l0.5-1.25q0.5-1.25 2-1.5zm-1 22.75q1.5-0.5 1.5 0.5t-0.5 1-1.5-0.5l-1-0.5 1.5-0.5zm0.5-13v-1l1.75 1q1.75 1 1 1.25t-1.75 0-1-1.25zm1 10v-1h3v1q0 1-1.5 1t-1.5-1zm3.5-14.75q1.5-0.25 1.5 1.25t-2 1.5h-2l0.5-1.25q0.5-1.25 2-1.5zm-2 92.25q0-5.5 0.5-5t1 2.5 0.75 7.5-0.75 5.5-1.25-2.5l-0.25-2.5v-5.5zm0.5-81.5q0-1 2-0.75l2 0.25-0.5 0.5q-0.5 0.5-2 0.75t-1.5-0.75zm3-4v-1h3v1q0 1-1.5 1t-1.5-1zm1.5 8.75q1.5-0.75 1.5 0.25t-1.5 0.75l-1.5-0.25 1.5-0.75zm2.5 54.75q4 0 10 2.5t2.5 2l-3.5-0.5-6.5-2q-6.5-2-2.5-2zm-3.5 29.5q0-5 1-3.5l1 1.5 0.5 0.5q0.5 0.5 1.25 3.25t2 5 2.25 5.75l1 3.5-1.25-0.5q-1.25-0.5-2.75-3.75t-2.75-3.5-1.75-1.75-0.5-6.5zm3.25-98.25q1.25-0.25 2.25 0.25l1 0.5-0.5 0.5q-0.5 0.5-2.25-0.25t-0.5-1zm3.25 65.75q5 0 10.5 2.5t7.5 3.5l2 1 2 3q2 3-1.5 1.5t-5.5-3.5-4-3-6.5-2.5-7-2l-2.5-0.5h5zm-4-55.5v-1h3v1q0 1-1.5 1t-1.5-1zm0 10q0-1 2-0.25l2 0.75-2 0.25q-2 0.25-2-0.75zm4-14.5h1v1q0 1-1 1h-1v-1q0-1 1-1zm0.5 9.75l1.5-0.25v3l-1.75-1q-1.75-1-1.5-1.25t1.75-0.5zm3-13.75q1.5 0 2 0.5l0.5 0.5-2 0.5q-2 0.5-2-0.5t1.5-1zm-1.5 10q0.5-1.5 1.75-1l1.25 0.5-0.5 1.25q-0.5 1.25-1.75 1t-0.75-1.75zm4.5 48.75q3.5-0.25 3 1t3.5 3.25 3.5 2.5-4-1l-3.5-1.5-4-1q-4-1-3-2t4.5-1.25zm0-63l1.5-0.25-1 1.25q-1 1.25-1.5 0.25t1-1.25zm-1.75 21.25q0.75-1.5 1.5-0.25t-0.75 1.5l-1.5 0.25 0.75-1.5zm0.25-10.5q0-1 1.5-0.25l1.5 0.75-1.5 0.25q-1.5 0.25-1.5-0.75zm2-4v-1l1.75 1q1.75 1 1 1.25t-1.75 0-1-1.25zm0 10v-1l1.75 1q1.75 1 1 1.25t-1.75 0-1-1.25zm3 6.5q0.5-1.5 1-1l0.5 0.5-0.75 1.25q-0.75 1.25-1 1l-0.25-0.25 0.5-1.5zm0-20.5q0-1 1.75-0.5t2 1.5l0.25 1-2-0.5q-2-0.5-2-1.5zm0.25 10l-0.25-1 2 0.5q2 0.5 2 1.5t-1.75 0.5-2-1.5zm0.75 17q0-1 2-0.25l2 0.75-2 0.25q-2 0.25-2-0.75zm4.5 192q2-3 2.25-1.25t3 1.5 3 0-1.75 1.25l-2 1-2 1q-2 1-3.25 0.25t0.75-3.75zm-1.5-213.5q0.5-0.5 1.75 0t1.25 1.5v1l-1.75-1q-1.75-1-1.25-1.5zm1.75 17.25q1.25-0.25 1.75 1l0.5 1.25-1.75-1q-1.75-1-0.5-1.25zm1-20.25q0.75-1.5 2.25 0t0.25 1.75-2.25 0l-1-0.25 0.75-1.5zm0.25 35q0.5-0.5 1.25 1l0.75 1.5-1.25-1q-1.25-1-0.75-1.5zm2-19q0.5-0.5 1.25 1l0.75 1.5-1.25-1q-1.25-1-0.75-1.5zm1.5-9q1.5 0 2 0.5l0.5 0.5-2-0.5-2-0.5h1.5zm0 16.5v-1l0.75 1.25q0.75 1.25 0 1t-0.75-1.25zm0.75 16l-0.25-1h1.5q1.5 0 1.5 1.5v1.5l-1.25-0.5q-1.25-0.5-1.5-1.5zm0.75-36q0-1 1.75-0.5t2 1.5l0.25 1-2-0.5q-2-0.5-2-1.5zm1.25 16l-0.25-1 1.25 1q1.25 1 0.25 1t-1.25-1zm2.5-10.25q1.25-0.25 1.75 1l0.5 1.25-1.75-1q-1.75-1-0.5-1.25zm0.75-9.25q1.5 0 2 0.5l0.5 0.5-2-0.5-2-0.5h1.5zm0 42.5q1.5-0.5 1.75 0.75t-0.25 1.75l-0.5 0.5-1.25-1.25-1.25-1.25 1.5-0.5zm0.75 197.5q-0.25-1.5 1.25-1.5t1.5 1.75-1.5 2.25l-1.5 0.5 0.25-0.75q0.25-0.75 0-2.25zm1-243.5q-0.25-1 2.25 0.25l2.5 1.25-2.25-0.25q-2.25-0.25-2.5-1.25zm0.5 26.5l-0.75-1.5 2 1.25q2 1.25 0.75 1.5t-2-1.25zm2.25-11h1v1q0 1-1 1h-1v-1q0-1 1-1zm-1 35v-1.5l1.25 1q1.25 1 0 1.5l-1.25 0.5v-1.5zm2.5-44.25q1.5-0.25 1.5 0.75t-1.5 0.25l-1.5-0.75 1.5-0.25zm1.5 6.25q2 0 2.5 0.5l0.5 0.5-2.5-0.5-2.5-0.5h2zm-0.75 17.5l-0.25-1 1.25 0.5q1.25 0.5 1.5 1.5l0.25 1-1.25-0.5q-1.25-0.5-1.5-1.5zm0.75 23l0.5-1 0.5 1.5q0.5 1.5-0.5 1.5t-1-0.5 0.5-1.5zm3 474.25q4-0.25 4.75 2.75t1 0 2.75-3 3.75 6.5 1 8.75l-0.25 2.25-1.75-0.25q-1.75-0.25-3.25-5.25l-1.5-5 0.25 5q0.25 5-2.25 5t-3.25-2.5-1.75-0.5-1.75-2.5 0.25-4.5 0.5-3l-0.5-3-1-0.25q-1-0.25 3-0.5zm-2.5-524l-0.5-1.25 1.75 1q1.75 1 0.5 1.25t-1.75-1zm-0.25 15.75l-0.25-1 2.5 0.5q2.5 0.5 2.5 2t-2.25 0.5-2.5-2zm2-10l-0.25-1 2 0.5q2 0.5 2 1.5t-1.75 0.5-2-1.5zm2.25 559.5q1.5 0 3 1t-2 0.5l-3.5-0.5 0.5-0.5q0.5-0.5 2-0.5zm-0.25-552.5l-0.25-1 1.75 0.5q1.75 0.5 2 1.5l0.25 1-1.75-0.5q-1.75-0.5-2-1.5zm0.75-10q0-1 1.75-0.5t2 1.5l0.25 1-2-0.5q-2-0.5-2-1.5zm1.75 16.75l1.25-0.25 0.25 0.25q0.25 0.25-0.5 2t-1.5 0 0.5-2zm0.25-9.75q0-1 1.75-0.5t2 1.5l0.25 1-2-0.5q-2-0.5-2-1.5zm2 7q0-1 2.25 0t2.5 1.25l0.25 0.25-2.5-0.25q-2.5-0.25-2.5-1.25zm1.25 8l-0.25-1 1.75 0.5q1.75 0.5 2 2l0.25 1.5-1.75-1q-1.75-1-2-2zm4.75-3.5q0-1.5 1.75-0.5t2 2l0.25 1-2-0.5q-2-0.5-2-2zm0.25 8l-0.25-1.5 1.75 1q1.75 1 2 2l0.25 1-1.75-0.5q-1.75-0.5-2-2zm1.5 499.5l-0.75-5 2.25 0.5q2.25 0.5 3.25 4.5l1 4 0.25-4.5q0.25-4.5 2-4t2.75 4 1.25 8.25l0.25 4.75-1.75-0.75q-1.75-0.75-2.75-3.75t-1.25 0.75-2 3.5-2.75-3.75-1.75-8.5zm2.75 36.25q2.5-0.25 2.5 0.75t-2.5 0.25l-2.5-0.75 2.5-0.25zm-1.25-547.25l-0.25-1 2.25 1q2.25 1 2 1.75t-2 0-2-1.75zm1.75-10.5q0.5-1.5 1.75 0.5l1.25 2-1.75-0.5q-1.75-0.5-1.25-2zm-0.75 18.5l-0.25-1 1.75 0.5q1.75 0.5 2 1.5l0.25 1-1.75-0.5q-1.75-0.5-2-1.5zm0.75 8.5v-1.5l1.25 0.5q1.25 0.5 1.5 1.5l0.25 1h-1.5q-1.5 0-1.5-1.5zm1 537q0-1.5 4.5-0.25t1 1.75-4.5 0.25l-1-0.25v-1.5zm1.25-556.5l-0.25-1 2.5 1.25q2.5 1.25 1.5 1.75t-2.25-0.25-1.5-1.75zm1.5 7.5q0.75-1.5 2 0.5l1.25 2-2-0.5q-2-0.5-1.25-2zm2.25-11q2 0 3 1.75t-1.5 0.5-3-1.75l-0.5-0.5h2zm-0.75 17.75q0.25-0.25 1 1.5t-0.25 2l-1 0.25v-1.75q0-1.75 0.25-2zm63.25 531q3.5-1.25 3.5-0.25t-8 3.75-14 4.25-18.5 1-19.5-2l-7-1.5 2.75-0.25q2.75-0.25 3 0t10.75 1.25 18 0.5 13-2 9-2.5l3.5-1 3.5-1.25zm-60.25-542q0.25-0.25 1.5 1.5l1.25 1.75-1.75-0.75q-1.75-0.75-1.5-1.5t0.5-1zm0.75-9.75q0.5-1.5 2-0.5t1.75 2.5l0.25 1.5-2.25-1q-2.25-1-1.75-2.5zm-0.75 26.5q-0.25-1 1.25-1t2 1.25l0.5 1.25-1.75-0.25q-1.75-0.25-2-1.25zm78.75 514.5q1 0-1.75 3.25l-2.75 3.25-5.25 4.25q-5.25 4.25-9.25 6t-3.5 2.5 1.5 1.25-1.5 1.5l-2.5 1-1 0.5q-1 0.5-3.5 0t-3-1-4.5 0.5-17 0.5-19-2-3-1.5h3l6 1q6 1 17.5 0.5t21.75-3.75 11.75-4.25l1.5-1 1.5-1q1.5-1 1.75-3t1.25-2 2.25-2 2.25-2 2.75-1.25 2.75-1.25zm-75.5-25.25q1.5-0.25 2.75 4.75l1.25 5 0.75 4q0.75 4-1.75 4t-3.75-7-1-8.75l0.25-1.75 1.5-0.25zm63 21.75q1.5-0.5-0.25 1.75l-1.75 2.25-2.25 1.75q-2.25 1.75-9.25 4.25t-13.5 4-18 1l-11.5-0.5-3 0.5q-3 0.5 2 1.5t17 0.5 21-2 3.5 0.5-10.5 3-18 0.5-16.25-0.75-3.5-3.25 1.75-2.75 18 0.25 19.5-1 10.25-3.25 10-5 4.75-3.25zm-63-529.5v-1.5l2 2q2 2 0.75 2.25t-2-0.5-0.75-2.25zm45 535.5q4.5-0.5 2 0.5l-2.5 1-8.5 2q-8.5 2-22 1l-13.5-1 1.5-0.5q1.5-0.5 17-0.5t18.5-1 7.5-1.5zm-41.5-539.5q1 0 2.5 2.25l1.5 2.25-2.5-1.25q-2.5-1.25-2.5-2.25t1-1zm1.75 520q-1.75-8.5 0.5-8t3.25 4 1.5 5.5l0.5 2-0.25-6q-0.25-6 2-5.5t3.25 2 0.75-0.5 2.5-1.5 3.75 4.5 1.25-0.5 2.25-4.5 3.5 9l1.5 9h-2.5q-2.5 0-3.25-3t-1 0-2.5 2.5-3.25-2-0.75 0.5-2.25 2-3 0-3.25-0.5-4.5-9zm-0.5-510q-0.25-1.5 1.25-1.5t2 2l0.5 2-1.75-0.5q-1.75-0.5-2-2zm0 15q-0.25-1.5 0.75-1.5t1.5 2l0.5 2-1.25-0.5q-1.25-0.5-1.5-2zm1-7.5l-0.25-1 1.25 0.5q1.25 0.5 1.5 1.5l0.25 1-1.25-0.5q-1.25-0.5-1.5-1.5zm2-11l-0.25-1 2.25 1q2.25 1 2.5 2l0.25 1-2.25-1q-2.25-1-2.5-2zm0.75 22.5l-0.5-0.5 0.5 0.5q0.5 0.5 0 0zm1.5-14.75q1.5-0.75 2 1.25l0.5 2-2-1.25q-2-1.25-0.5-2zm-1.25 8.25l-0.25-1 1.25 0.5q1.25 0.5 1.5 1.5l0.25 1-1.25-0.5q-1.25-0.5-1.5-1.5zm1.75 12.5q0.5-1.5 1-1t0.75 2l0.25 1.5-1.25-0.5q-1.25-0.5-0.75-2zm1.25-7l-0.25-1.5 1.75 0.5q1.75 0.5 1.5 1.75t-1.5 1-1.5-1.75zm1.5-15.5q0.75-2 1.75 0t0.25 2.25-1.75 0l-1-0.25 0.75-2zm-0.5 7.5l-0.25-1.5 2 1.25q2 1.25 0.5 1.75t-1.75 0.25-0.5-1.75zm-0.25 21v-1.5h1q1 0 1 1.5v1.5h-1q-1 0-1-1.5zm2-7.5v-2l1.25 0.5q1.25 0.5 1 1.75t-1.25 1.5l-1 0.25v-2zm2.5-9q1.5-0.5 1.75-0.25t-0.25 2.25l-0.5 2-1.25-1.75-1.25-1.75 1.5-0.5zm-1 175.5q0-3.5 1 0l1 3.5 0.5 2.5q0.5 2.5 0.5 7v4.5l-1.5-7q-1.5-7-1.5-10.5zm1.5-182.5q0.5-2 1.5 0t0.75 2.25l-0.25 0.25-1.25-0.25q-1.25-0.25-0.75-2.25zm0 21l0.5-2 0.5 2q0.5 2-0.5 2t-0.5-2zm2.25-9.5l1.25-0.5 0.75 2q0.75 2-1.25 2t-2-1.5 1.25-2zm-0.25 14q0.5-0.5 1.25 1l0.75 1.5-1.25-1q-1.25-1-0.75-1.5zm3 496q3 0 6 0.5t1 1l-2 0.5h-0.5q-0.5 0-4-1t-0.5-1zm-2.75-516q-0.25-1.5 1.25-1.5t1.5 2v2l-1.25-0.5q-1.25-0.5-1.5-2zm1.5 11.5l1.75-1 0.5 0.5q0.5 0.5 0.25 2.25t-2 1.5-2-1.25l-0.25-1 1.75-1zm0.25 13.5l0.5-0.5v4l-0.5-1.5q-0.5-1.5 0-2zm1 6q1 0 1.5 1.25t-0.5 1.25-1.5-1.25l-0.5-1.25h1zm1.25-27.25q0.25-0.25 0.75 0.25t0.75 2l0.25 1.5h-1q-1 0-1-1.75t0.25-2zm1.25 14l1.5-0.25-0.5 1.25q-0.5 1.25-2 1.5l-1.5 0.25 0.5-1.25q0.5-1.25 2-1.5zm1-8.25q1.5-0.5 1.75-0.25t-0.25 2.25l-0.5 2-1.25-1.75-1.25-1.75 1.5-0.5zm-0.25 12.5q1.25-0.5 1.75 0t0.25 2.25-1.75 2l-1.5 0.25v-2q0-2 1.25-2.5zm1 6q1.25-0.5 1.75 0t0.75 2l0.25 1.5-1.75-0.5q-1.75-0.5-2-1.5t1-1.5zm2.75 4.75q1-0.25-0.25 1.75l-1.25 2 0.25-1.75q0.25-1.75 1.25-2zm-1-16.75v-1.5l1.25 1q1.25 1 0 1.5l-1.25 0.5v-1.5zm0.75 23l0.75-1.5 0.25 1.5q0.25 1.5-0.75 1.5t-0.25-1.5zm1.5-20l1.25-0.5 0.5 2q0.5 2 0.25 2.25t-1.75 0.5-1.5-1.75 1.25-2.5zm-1 24.5l-0.25-1 1.25 0.5q1.25 0.5 1.5 1.5l0.25 1-1.25-0.5q-1.25-0.5-1.5-1.5zm3-18.75l0.25-0.25 0.5 0.5q0.5 0.5 0.25 2.25t-1.5 1.5-0.5-2 1-2zm-0.75 472.75l-1.5-9h2.5q2.5 0 4 9t-1 9h-2.5l-1.5-9zm2-466.75q1.5-0.25 1.5 1.25t-2 1.5h-2l0.5-1.25q0.5-1.25 2-1.5zm-0.25 5.75q-0.25-2 1.25-2t1.5 1.5-1.25 2l-1.25 0.5-0.25-2zm4 457.5l-0.25-5.5 2.25 0.5q2.25 0.5 2.75 4.5t1.25-0.25 2.75-4.5 2.75 1.75 1 0 2-1.5 2.75 4 1.25-0.5 2.25-4h2l1.5 9 1.5 9h-2.5q-2.5 0-3.25-3t-1 0-5.75 3-6.25-3.5l-0.75-3.5 0.25 3.5q0.25 3.5-2 3t-3.25-3.5-1.25-8.5zm4.75-455.75q2-0.25 2.25 1t0 1.5-2.25 0.5l-2 0.25v-1.5q0-1.5 2-1.75zm-1.5 12.25v-2l1 2q1 2 0 2t-1-2zm3.5-7.75l2-0.25v1.5q0 1.5-2.25 1.5t-2-1.25 2.25-1.5zm-3 13.25v-1.5h1q1 0 1 1.5v1.5h-1q-1 0-1-1.5zm0.75 5l0.75-1.5 0.25 1.5q0.25 1.5-0.75 1.5t-0.25-1.5zm3.75-13q1.5 0 2 0.5l0.5 0.5-2 1.25-2 1.25v-1.75q0-1.75 1.5-1.75zm1.5 4.75q1-0.25 1 1.5t-1.5 2l-1.5 0.25 0.5-1.75q0.5-1.75 1.5-2zm0 5.5q2-0.25 2 0.75t-1.75 1.75l-1.75 0.75-0.25-1.5q-0.25-1.5 1.75-1.75zm2.5-23.75l3.5-1-0.5 1.75q-0.5 1.75-1.75 1.5t-2 1-1.75 1.5l-1 0.25v-2q0-2 3.5-3zm1.75 193.5l-5.25-24.5 1.25 0.5q1.25 0.5 2.25 4l1 3.5-0.25-4q-0.25-4 1.25-4t2.25 3 1 0 1.75-3 2.25 3 1 0 1.75-3 2.75 4.5l1.25 4.5-0.25-4.5-0.25-4.5h1.5q1.5 0 2.75 2t1 0 1.5-1.5 2.5 0.75 1.25-0.25 2-0.75 2.25 2.25 1 0 2.5-1.5 2.75 2 0.75-1 2-1.5 3.25 3.5l1.5 3-0.25-3.5q-0.25-3.5 2.25-2.25t2.75 1.5 0.5-0.75 3-0.5 3.75 3l1 2.5-0.25-3q-0.25-3 2.25-3t3.25 2 1 0 2-1.5 2.75 3l1 2.5-0.25-3q-0.25-3 2-2.5t3 0.75 1.25-0.25 2.25-0.25 2.75 2.75 1.25-0.5 2-2.5 3.25 5.5l1.5 5-0.25-5.25q-0.25-5.25 1-5t2.75 2.25 1.25 0 1-1.5 2.75 2 1.25-0.5 1.25-2 2 2.5 1.25 2 0.5-2.5 1-1.5 2.25 2.5 1.25-0.5 1.25-2.5 2.25 3.5 1.75 4.5l0.5 1 0.75-2.75q0.75-2.75 1.5-1t6.25 17.75 7.25 22.5l1.75 6.5h-1q-1 0-2-0.5t-3.25-1-3.25-3-0.75 0.25-1.75 3-2.75-2.25-1 0-4.75 2.5-5 0-2.75-1-3.75-6.5l-1.5-5.5-0.5-1q-0.5-1 0 2.5t1.25 7.5-1.5 3.5-3.25-1.5-0.75 0.5-5.5 0.5-6.75-5l-1-4 0.25 4.5q0.25 4.5-5 4t-5.75-1.5-0.75 0.5-3 1-3.75-4l-1-3.5 0.25 4q0.25 4-1.75 4t-2.5 0-6.5 0-6.75-2.5l-0.75-2.5-0.25 2.5q-0.25 2.5-2.75 2.5t-3 0-2.5 0-2.5 0-2.25-0.5-2.75-3.5l-1-3-0.25 3.5q-0.25 3.5-1.75 3.5t-2-0.5-2.25-0.5-2.75-2-1.5-3.5l-0.5-1.5 0.25 4q0.25 4-1.5 3.5t-2.75-4.75-2-1-6.25-21.25zm-4.25-186v-1.5l1.75 1q1.75 1 1.5 1.25t-1.75 0.5l-1.5 0.25v-1.5zm0.25 23q-0.25-1.5 1.25-1.5t0.75 2l-0.75 2-0.5-0.5q-0.5-0.5-0.75-2zm-0.25 6.5v-2h1q1 0 1 2v2h-1q-1 0-1-2zm0.25 10.5q-0.25-1.5 0.75-1.5t0.25 1.5l-0.75 1.5-0.25-1.5zm2.75-37q1 0 1.25 0.25t0 2-1.25 2l-1 0.25v-2.25q0-2.25 1-2.25zm0.25 8l-0.25-1.5h3l-1 1.75q-1 1.75-1.25 1.5t-0.5-1.75zm2.75-14.25q1-0.25 1.5 1l0.5 1.25-1.5 0.75q-1.5 0.75-1.5-1t1-2zm-2 19.25q0-1.5 1.5-1.5h1.5l-0.5 1.25q-0.5 1.25-1.5 1.5l-1 0.25v-1.5zm2 2.75l1-0.25v2.5q0 2.5-1 2.5t-1-2.25 1-2.5zm-1 18.25l0.5-0.5v4l-0.5-1.5q-0.5-1.5 0-2zm0.75-10l0.75-2.5 0.25 2.5q0.25 2.5-0.75 2.5t-0.25-2.5zm-0.5 6q-0.25-1.5 0.75-1.5t0.25 1.5l-0.75 1.5-0.25-1.5zm1.75-30.5l0.5-2 0.5 2q0.5 2-0.5 2t-0.5-2zm1.25-13.5q1.25-0.5 1.75 1t0.25 1.75-1.75 0.5l-1.5 0.25v-1.5q0-1.5 1.25-2zm-1.25 20v-2.5l1.25 0.5q1.25 0.5 1.5 2.5t-1.25 2-1.5-2.5zm3.5-15.25l1.5-0.25-0.5 1.75q-0.5 1.75-1.75 1.5t-1-1.5 1.75-1.5zm-2.5 20.25q0-1.5 1.5-1.5h1.5l-0.5 1.25q-0.5 1.25-1.5 1.5t-1-1.25zm1 5v-2.5h1q1 0 1 2.5v2.5h-1q-1 0-1-2.5zm6.5 474q3.5-1 1 0.5t-5 2.25-2.5-0.25 1.5-1.25l1.5-0.25 3.5-1zm-3.5-494.25l1-0.25v2q0 2-1.5 2t-1-1.75 1.5-2zm1.25-12q1.75-0.75 2.25-0.25l0.5 0.5-0.5 1.25q-0.5 1.25-2.25 0.25t0-1.75zm-0.25 17.25q2-0.5 2.5 0.75l0.5 1.25-0.5 1.25q-0.5 1.25-2.5 1.25t-2-2 2-2.5zm2.5-13.25l1.5-0.25-0.5 1.75q-0.5 1.75-2 2t-1-1.5 2-2zm-1.75 20.75q0.75-2 1.25-0.5t-0.75 2l-1.25 0.5 0.75-2zm1.25 3.25l1-0.25-0.5 2.25q-0.5 2.25-1.5 2.5t-0.5-2 1.5-2.5zm0 6l1-0.25-1 2.25q-1 2.25-1.25 2t0-2 1.25-2zm1.5-24.75l2.5-0.5-0.5 1.75q-0.5 1.75-2.25 2t-2-1.25 2.25-2zm1.5 4.75l1-0.25v2.25q0 2.25-1.25 2.5t-1-2 1.25-2.5zm-0.75-16.25q-0.25-2 1.25-2t1.5 1.5-1.25 2l-1.25 0.5-0.25-2zm-0.25 24.5q0-1.5 1.5-1.5h1.5l-0.5 1.25q-0.5 1.25-1.5 1.5t-1-1.25zm2 3.75l1-0.25-0.5 1.75q-0.5 1.75-1.5 2l-1 0.25 0.5-1.75q0.5-1.75 1.5-2zm-1-23.25q0-2 2-2h2l-0.5 1.75q-0.5 1.75-2 2t-1.5-1.75zm0.25 31.5q-0.25-2.5 0.75-2.5t0.25 2.5l-0.75 2.5-0.25-2.5zm-0.25 5v-1.5h1q1 0 1 1.5v1.5h-1q-1 0-1-1.5zm21 453q1 0-7.5 7.5l-8.5 7.5-1.5 1q-1.5 1-1.75 0.25t3-3.5 7.75-6.75l4.5-4 1.5-1q1.5-1 2.5-1zm3-8q1 0 0.5 0.5l-0.5 0.5-7.25 6.75q-7.25 6.75-10.5 9.5t-4.25 3l-1 0.25 0.5-1.25q0.5-1.25 3-3.25t3.75-3.75 2-3.5 4-3.5 6-3.5 3.75-1.75zm-20-479.25l1-0.25-1 2.75q-1 2.75-1.25 2.5t0-2.5 1.25-2.5zm-1 8.75v-2l1.25 0.5q1.25 0.5 1 1.75t-1.25 1.5l-1 0.25v-2zm4.5-15.75q1.5-0.25 1 1t-2.5 1.25h-2l1-1q1-1 2.5-1.25zm-3.25 27.75q-0.25-2 0.75-2t0.25 2l-0.75 2-0.25-2zm-0.25 6v-2h1q1 0 1 2v2h-1q-1 0-1-2zm0.75 254.5l-0.75-5.5h1q1 0 2.25 0.5t2.75 0.5 2.5 0 2.75-0.25 2.75 0.25 3.75 0.75 3.5-0.25 3.25-0.5 8.75 0.5 6.75 2.5l0.5 2 0.25-2.5q0.25-2.5 2.25-2.5t2.5 0 3.5 0 4.25 12.5l1.25 12.5-0.25-12.25q-0.25-12.25 1.75-12.5t2.75 6.75l0.75 7 0.5-6.5q0.5-6.5 1.5-5t1.25-0.5 2.5-0.5 2.75 2.5 1.75-1.25 3.25-2 5.5 0.25 7.25 1.5 4 0 2.5-0.5 2.75 2.5l0.5 1.5 0.25-2.5q0.25-2.5 2.5-1.5t3 0 3.5 0 3.25 2l0.5 1 0.25-2q0.25-2 6.25-1.5t6.5 0.5 2.75 1 2.5 0.25 1.5-0.5l1.25 0.25 1 4q1 4 2 8t5.5 18.5 7 26 5.5 23l3 11.5-2.25 1.25q-2.25 1.25-15 0.5t-14.25-4.75l-1.5-4-0.25 4.75q-0.25 4.75-14.5 4t-15.25-5.25l-1-4.5-0.25 4.75-0.25 4.75-2.75-0.75q-2.75-0.75-3.5 0.25t-5.5 0.5-5.5 0-17.5-1l-16.75-1.5-0.25 1q-0.25 1-9.25 1h-9l-6.75-33.5q-6.75-33.5-8.75-42.5t-2.75-14.5zm27 200.25q1.75-1.75 1.75-0.75v1l-3.25 3.75q-3.25 3.75-5.75 5.75t-9 7.5-8 5.5h-1.5l4.5-3.5q4.5-3.5 10.75-9.25l6.25-5.75 1.25-1.25 1.25-1.25 1.75-1.75zm-22.75-484.5q1-0.25 1 2.25t-1.25 3l-1.25 0.5 0.25-2.75q0.25-2.75 1.25-3zm-0.75 8.75l1.25-2-0.25 1.75q-0.25 1.75-1.25 2t0.25-1.75zm0 6q-0.25-2 0.75-2t0.25 2l-0.75 2-0.25-2zm-0.25 6v-2h1q1 0 1 2v2h-1q-1 0-1-2zm1 4.5l0.5-0.5v4l-0.5-1.5q-0.5-1.5 0-2zm4-27.25l1-0.25-1 2.25q-1 2.25-1.25 2t0-2 1.25-2zm1 6l1-0.25-0.5 1.25q-0.5 1.25-1.5 1.5l-1 0.25 0.5-1.25q0.5-1.25 1.5-1.5zm0.25 5l0.25-0.25-0.25 2.25q-0.25 2.25-1.25 2.5t0-2 1.25-2.5zm-0.25 7l1-0.25-0.5 1.25q-0.5 1.25-1.5 1.5l-1 0.25 0.5-1.25q0.5-1.25 1.5-1.5zm22 469.75q1.5-2 1.5-0.5v1.5l-2 2.5q-2 2.5-9.25 9.25t-8.25 7.25l-1 0.5-1.25 0.75q-1.25 0.75-0.5-1t3.25-3.75 9.25-8.25 8.25-8.25zm-20-489v-2h1q1 0 1 2v2h-1q-1 0-1-2zm1 5.5l0.5-1.5 0.25 1.75q0.25 1.75-0.5 1.5t-0.25-1.75zm15.5 494.25q3.5-2.75 2.25-0.75t-6 6.25-5.5 3.5 2.5-3.5l3.25-2.75 3.5-2.75zm3.75 2.25q2.75-2 1.5 0.5t-5 5.25-4 2 2.25-3.25l2.5-2.5 2.75-2zm60.75-265q2-0.5 3-0.25t1.5 1.5-2.75 0.5-3.5-1l-0.25-0.25 2-0.5zm7.5 0.25l-0.5-1.25 1.75 1q1.75 1 0.5 1.25t-1.75-1zm48 110.25v-2.5l4 12q4 12 4.25 14.25l0.25 2.25-0.75-0.25q-0.75-0.25-2.75-5.75t-3.5-11.5-1.5-8.5z"/>
  <path d="m16.5 439.75q3.5-0.25 3.5 0.75t-3.5 1.25-3.5-0.75v-1l3.5-0.25z"/>
  <path d="m16.5 445.5q2.5 0 3 1.25l0.5 1.25-3.25-1q-3.25-1-3-1.25t2.75-0.25z"/>
  <path d="m13 499.5q0-1.5 6.5-1.25t22 0.75 25.5 0.75 10 1.25 1.5 1.25l1.5 0.25-2.5 0.5q-2.5 0.5-31.75-0.25t-29.5-1-1.75-0.5l-1.5-0.25v-1.5z"/>
  <path d="m13.25 525q-0.25-1 1.25-0.75l1.5 0.25 6 0.5 6 0.5-6 0.5-6 0.5-1.25-0.25q-1.25-0.25-1.5-1.25z"/>
  <path d="m14.25 516q-0.25-1 1.25-0.75l1.5 0.25 10 1 10 1-11.25-0.25q-11.25-0.25-11.5-1.25z"/>
  <path d="m15 519.5q0.5-0.5 0.75-0.25t3.25 0.75l3 0.5 7 0.5 7 0.5-10.75-0.75q-10.75-0.75-10.25-1.25z"/>
  <path d="m18 451.5q2 0 2.5 0.5l0.5 0.5-2.5-0.5-2.5-0.5h2z"/>
  <path d="m32 732.5q8 0 13 0t16 0 23.5 0.5 45 1.5 33 1 28 0.5 74 1.25l46.5 0.75v1q0 1-26.5 0.75t-32.5-0.25-8.75 0.75l-2.75 0.75-0.25-1q-0.25-1-4.25-1.25t-27 0.5-23-0.25-19-1.25-20.5 0.25-6.5 1-13 0.5h-8l7-1 7-1-20.5-0.5q-20.5-0.5-22.5 0t-0.5 1-20.5 0-25-1-5.5 0-9 0.75-6.25-2.25l0.25-2.5 0.25-0.25q0.25-0.25 8.25-0.25z"/>
  <path d="m65 475.5q0.5-0.5 1.25 1l0.75 1.5-1.25-1q-1.25-1-0.75-1.5z"/>
  <path d="m78.5 318.5l2-6.5-0.25 4.25q-0.25 4.25 1.5 3.5t3.75-1.75 1.75 0.75 0.75 1.5-0.25 2.25-3.75 5.5-2.5-0.5v-3.5l-0.5 1.5q-0.5 1.5-0.5 9.5t0.5 9l0.5 1 0.5-1.5q0.5-1.5 0.75-3.75t-0.75-2.5 0.5-3.75 2.75-4 0.75 6-1.25 9-2.25 2.5-1.25 1.5 1.25 14 3 20 3.25 10.75 2.25 3l1-0.25-0.75 1.5q-0.75 1.5-0.25 6.5t2 9.5 2 4 0.75 0.5-0.75 1 0.25 4.5 3 3.5 2 0l0.25 1 0.25 3.75q0.25 3.75-0.75 4t0.25 3.75 3.5 8.25 5 8.5 3.5 6-1.25 1.75l-2-0.5 0.25-1.25q0.25-1.25-1.5-2t-2.75-1.25 0.5-0.75 1-1.5-4-1.75-1.25-1.25 1.5-2.5-1.5-2.5-2.25-5.25-4.5-13.5-7.5-28.5-6-26-2.5-19-1.5-22 1.5-16z"/>
  <path d="m85 347.5q0.5-0.5 1 2t0 4l-0.5 1.5-0.5 0.5q-0.5 0.5-0.75-3.25t0-4l0.25-0.25 0.5-0.5z"/>
  <path d="m100.5 362.5q1.5 0 2.25 0.25t1 1.25-3.75 2.75-6.25 3.5-4.25 5.25l-2 3.5 0.75-3.25q0.75-3.25 4.25-7.25l3.5-4 1.5-1q1.5-1 3-1z"/>
  <path d="m108.25 451.5q-0.25-1.5 1.25-1.5t1.5 1-1.25 1.5l-1.25 0.5-0.25-1.5z"/>
  <path d="m115.75 284.5q1.25-0.5 1.5 2t-0.75 5.5-1.5 9-1.5 16-0.5 14 0 7-0.75 14.5 2.5 10 2.75-0.5-2.75 2.5-2.75 3v1.5l2.25-1.5q2.25-1.5 4-2.75t2.75-1.25h1l-4 5.25q-4 5.25-1.75 3.75t3.75-2-1.25 2.75-3.25 4.5 1.25 0.25 5-3l3.25-2-1 1.25q-1 1.25-4 5.5t-1.75 3.25 3.5-2.75 2.25-0.75-2.75 3.75-1.75 3.25 3.5-1.5 1.5 0.5-3.25 5.5l-2.25 3 2.25-1.5q2.25-1.5 3-2.25t2.25-0.75h1.5l-2.5 3q-2.5 3-3.5 3.25t0 1.5 3.5-0.5 0.75 1.25-2.75 4 0 1.5 3.75-1.5l2.75-2-1.75 3q-1.75 3-3.25 4.5t-1 3.5l0.5 2 2.25-3.25q2.25-3.25 3.5-2.5t0 3 0 1.5 0.25 1.75-2.25 4.75-0.5 2 3-2.25 0.75 0.75-2.5 4.5 0.25 1.25 2.5-1.75 1.5-1.5 0.5 3.25 0.5 4.5-0.5 2.75 0 1.5 3.75-2.25 2.75-0.75 1.25 2.25-1.5 2.75-3.25 2.75 2 2.75 2.75 0.5-0.5-1.25 0-1.75 2.5-2.75l1.5-1 0.75 0.75q0.75 0.75 0.5 2t-0.25 2.25-2 2.25-1 2 3.5-0.75 2.5-0.5 0 2 3.5-0.75l3.5-1.75-1.5 1.75q-1.5 1.75-5 4t-2.25 5.25 3 4.75 5.25-0.75l3.5-2.5 2.25-0.25q2.25-0.25-0.5 1.5t-5.5 3.5-1.75 4.25 5 7.5 3.75 6.25-1.25 0.75l-1-0.5-4.75-5.75q-4.75-5.75-7.25-10.25t-7.25-11.75-7-10.5-5.75-10.25-5-11.5-7.5-30.5-5-54.5 2-34.5 1.5-9.5l0.5-3.5 1.25-0.5z"/>
  <path d="m142 329.5l4-1-3.5 2.5q-3.5 2.5-9 6t-10.25 7.25-5.5 6.75l-0.75 3 2-0.75q2-0.75 6.5-3.75t8.75-7.75l4.25-4.75-0.75 2.25q-0.75 2.25-4.25 6.25t-10.5 8-8.25 3.75-0.75-2.25 2.25-6.25 4.25-7.25 10-7 11.5-5z"/>
  <path d="m125 434.5q2 0 2 1t1 0.75 1 0.75-1.25 1.5-1.5 2-4.5 2-4.5 0.25-1.75-1.25 2-3.5l3.5-2.5 1-0.5q1-0.5 3-0.5z"/>
  <path d="m117 458.5h2l-0.5 0.5q-0.5 0.5-2.5 0.5h-2l0.5-0.5q0.5-0.5 2.5-0.5z"/>
  <path d="m116 463q0-1 2.5-0.75l2.5 0.25-2.5 0.75q-2.5 0.75-2.5-0.25z"/>
  <path d="m124.5 468.5q2.5 0 2 0.5t1 1.5-1.5 1.75-3-0.25v-1l1-0.25q1-0.25-0.5-1.25t1-1z"/>
  <path d="m130.25 747.25q6.25-1.25 7.5-0.5t10.75 0.25l9.5-0.5-7.5 1q-7.5 1-17 1h-9.5l6.25-1.25z"/>
  <path d="m132 475.75l3-0.75-0.5 1.25q-0.5 1.25-3 0.75t0.5-1.25z"/>
  <path d="m135 479q4-1 3.5 0.25t-1.5 1.75-3.5 0.75-2.5-0.75v-1l4-1z"/>
  <path d="m138.5 482.75q4.5-0.25 3 0.75t2.25 0.75 3.5 0.5 1.75 0.5 2 1.25 2.5 1.75 1 1.25 1 0.5 4.5-1.25 2 0.25-2 2.25 0.75 0.5 4-1.5 2.75-0.75h1.5l-3.5 2.5q-3.5 2.5-7.5 4t-7 1.5h-3l3.5-1.5q3.5-1.5-0.5-2t-3-1.5-1.5-1.5-4.25-1.25l-1.75-0.75-0.25-0.75q-0.25-0.75-1.75-1.25t-0.5-1-1.5-0.75-2.5-1.25 4.5-1.25z"/>
  <path d="m161 415.5q2 0 3 0.25l1 0.25v1q0 1-4.5 1.5t-5 1.75-6 3.25-7 2h-1.5l-1.25 0.75q-1.25 0.75-1-0.5t6.75-4.75 10-4.5 5.5-1z"/>
  <path d="m150 563.5q6 0 14.5 0.5l8.5 0.5-14.75-0.25-14.75-0.25 0.25-0.25q0.25-0.25 6.25-0.25z"/>
  <path d="m145.5 569.5q1.5 0 9 0.5l7.5 0.5-2.5 0.5q-2.5 0.5-7 0.5h-4.5l-2.25-0.75q-2.25-0.75-2-1t1.75-0.25z"/>
  <path d="m143 577q0-1 13.5-0.25l13.5 0.75-13.5 0.25-13.5 0.25v-1z"/>
  <path d="m146 582.5h1l12 1 12 1-13.5 0.25q-13.5 0.25-13-1t1.5-1.25z"/>
  <path d="m144 591q0-2 4.5-1.25t5 0.75 41.5 1l41 1-0.5 0.5q-0.5 0.5-3.5 0.5t-35.5 0-36.5 0-10-0.25l-6-0.25v-2z"/>
  <path d="m158 446q2-0.5-0.75 1.75l-2.75 2.25-1.75 1.25q-1.75 1.25-2.5 0.5t2.5-3 5.25-2.75z"/>
  <path d="m157 451.5q1 0 0.75 0.25l-0.25 0.25-2.75 2.25q-2.75 2.25-3.75 2.5t0.25-1.75 3-2.75 2.75-0.75z"/>
  <path d="m165.25 455.75q1.25-0.75 0.5 1t-5.75 4.5-4 1 2.25-2.5l1.25-0.75 2.25-1.25q2.25-1.25 3.5-2z"/>
  <path d="m166.5 462q2.5-0.5-1 2t-5.5 3.25-1-1 3-2.75l2-1 2.5-0.5z"/>
  <path d="m169 303.5q3-1 1.5 1.5t0 2.5 0 1.5l-1.5 1.5-2 3q-2 3-4.75 6.75l-2.75 3.75 0.75-3.25q0.75-3.25 1.5-4t0.5-4 0.25-4.5 1.5-1.25 1.5-1.25 3.5-2.25z"/>
  <path d="m168.5 465.5q1.5 0-2 2.5t-4.75 3.25-0.75-0.75l0.5-1.5 2.75-1.75q2.75-1.75 4.25-1.75z"/>
  <path d="m170.5 469q3.5-0.5 0 1.5l-3.5 2-2 1.25q-2 1.25-0.75-0.75t2-2.75 4.25-1.25z"/>
  <path d="m173.5 472.5q1.5 0 0.25 0.75t-1 1.5 3.25 0.25 1.5 0.5l-1.5 1-1.5 1q-1.5 1-3.5 1t-1.5-1.25-0.5-2 1-1.75 3.5-1z"/>
  <path d="m180.5 311.5q3.5-2 0.75 0.75l-2.75 2.75-1.25 1.25q-1.25 1.25-3.75 1.25t0.5-2 6.5-4z"/>
  <path d="m180 529.25q9-0.25 9 0.75t-3.5 1.25l-3.5 0.25-1.5-0.5q-1.5-0.5-5.5-1l-4-0.5 9-0.25z"/>
  <path d="m189.75 470.25l1.75-1.25-0.75 1.75q-0.75 1.75-1.25 3.25t1 1.5-2.5 3-7.5 4.5-5.5 1.5h-2l2.5-1.5q2.5-1.5 1-2.5t5-5 8.25-5.25z"/>
  <path d="m198.25 474.25q0.25-0.25-0.5 1.5t-0.75 2.75 5-1.5l5-2.5-5.5 4.5q-5.5 4.5-10.5 7t-7.5 3.25-2.5-0.25 2-1.75l2-0.75-1-0.25q-1-0.25 0-2t7.5-5.75 6.75-4.25z"/>
  <path d="m196.5 297.75q3.5-0.75 3.5 0.75t-1.25 2-1.5 2-2.75 2-2.5-0.5-5-0.75l-5 0.25 2.5-1.5q2.5-1.5 5.5-2.5l3-1 3.5-0.75z"/>
  <path d="m203.25 481.75q1.25-0.75 0.5 1t-6.25 4.75-7 3.5l-1.5 0.5-1.5-0.5q-1.5-0.5 4-3l5.5-2.5 2.5-1.5q2.5-1.5 3.75-2.25z"/>
  <path d="m201.5 488q6.5-3.5 5-1t2.75 0.75 4-1.5l-0.25 0.25-4 3q-4 3-6.5 3.5t-2-1-4.5 1l-5 2.5-1.5 0.25q-1.5 0.25-1.5-0.75t3.5-2.25 10-4.75z"/>
  <path d="m203 403q0.5-1 1 0.5t-1.25 2.25l-1.75 0.75-2 1.5q-2 1.5-3 1.75t-1-1.5 3.75-3 4.25-2.25z"/>
  <path d="m213.5 490q3.5-1.5 0.5 1l-3 2.5-3 2q-3 2-4.5 3t-4.25 1.75l-2.75 0.75-0.25-1q-0.25-1 3.25-2.25t7-3.75 7-4z"/>
  <path d="m217 210.75l2-0.25 1.5 0.25q1.5 0.25 1.25 2.75t-2.25 13-2.5 17-1 8-1 5-1 5.5-0.75 4-4.25 2-4-1v-1l3.5-0.75q3.5-0.75 0.5-1t-3-1.25 3-1 3-1-3.5-1.75 0-1.75 1-2 0-2 0.5-2 0-1.25 2.75-5.75 1.5-19.5 2.75-14.25z"/>
  <path d="m251.5 266.25q3.5-0.25 3.5 1.25t-9 2.25-16 2.75l-7 2-3 2q-3 2-3.25 1.25t3.5-3.5 6.75-3.75 4-0.5 5-1 8-2l4-0.5 3.5-0.25z"/>
  <path d="m238.5 277.75q16.5-2.75 16.5-1.75t-1.5 1.25l-1.5 0.25-3.5 1q-3.5 1-17.5 3l-14 2 2.5-1.5q2.5-1.5 19-4.25z"/>
  <path d="m226.5 354.5h1.5l-0.5 1.25q-0.5 1.25 0 2t-1 1.5-1.5-2 1.5-2.75z"/>
  <path d="m228.25 362.25q1.75-0.75 1.25 0.75t-0.25 2.25 0.5 1.5 1.25 0.5-0.25 1.75-2.5 2.5-1.25-1.25-0.25-3-0.25-1.75 0-1.5v-1l1.75-0.75z"/>
  <path d="m244.5 259.5q3.5 0 3.5 1t-1 1-7.5 1.5-9.5 2.5l-3 1 3.5-2.5q3.5-2.5 7-3.5l3.5-1h3.5z"/>
  <path d="m232.5 371.5q1.5 0 0.5 1.75t0 1.75 1 1.75 1 1.5-0.25 1.75-1.5 2.25-1-0.5-1-1.5-1-0.5-0.75-1.25v-1.5l0.25-0.25q0.25-0.25-0.75-0.5t0.25-2.25 1.5-2.25 1.75-0.25z"/>
  <path d="m235.5 383.5h1.5l-2.5 1.75q-2.5 1.75-1.5 0t2.5-1.75z"/>
  <path d="m235.25 387l2.25-1 0.25 1.25q0.25 1.25-1.25 2.25t-2.75 0.75-1-1.25 2.5-2z"/>
  <path d="m238 390.75q2-0.75 1.5 1.5t0.5 2 0.5 2.25l-0.5 2.5 0.75 0.5q0.75 0.5 0 1.75t0.25 2.25-1 2.25-2-2.75-1.25-4.5-1-3.75 2.25-4z"/>
  <path d="m264.5 387.5h3.5l1.5 1q1.5 1-5.75 1.75t-8.75 2l-1.5 1.25-1 2.25q-1 2.25-0.5 13.25t-0.5 12.5-1.5 8l-0.5 6.5-1-1.5q-1-1.5-1.75-4.25t-1.75-3-1-1.75 1-1.5 1.75-11.5 3-16.5 6.75-6.75 8-1.75z"/>
  <path d="m251 469.25l1-0.25-1 1.25q-1 1.25-1 0.25t1-1.25z"/>
  <path d="m252 480q0-1 1.5-0.75l1.5 0.25-1.5 0.75q-1.5 0.75-1.5-0.25z"/>
  <path d="m263.5 350.5q5.5 0 6 0.5t-2 1l-2.5 0.5-4.5-0.5q-4.5-0.5-3.5-1t6.5-0.5z"/>
  <path d="m257 487q0-1 1.5-0.75l1.5 0.25-1.5 0.75q-1.5 0.75-1.5-0.25z"/>
  <path d="m277 742.5h7l-10 0.5q-10 0.5-7 0l3-0.5h7z"/>
  <path d="m273.75 561.5q-0.75-1.5 0.25-1.5t0.75 1.5l-0.25 1.5-0.75-1.5z"/>
  <path d="m278.25 399q-1.25-4-0.25-4h1l1.75 4q1.75 4 3.25 8.5t3 11l1.5 6.5 0.25 3q0.25 3-1.5 2.5t-4.75-14-4.25-17.5z"/>
  <path d="m286.5 452.5h1.5l0.75 1.75 0.75 1.75-0.75 0.75q-0.75 0.75-2.25 0.75h-1.5l-0.25-0.25q-0.25-0.25-0.25-2.25v-2l0.25-0.25q0.25-0.25 1.75-0.25z"/>
  <path d="m289 594q0-1 10.5-0.75t26.5 1.25l16 1-26.5-0.25-26.5-0.25v-1z"/>
  <path d="m310.75 234l0.75-3 0.25 3q0.25 3-0.75 3t-0.25-3z"/>
  <path d="m311.75 225q0.25-5 1.25-5t0.75 1.5l-0.25 1.5-1 3.5q-1 3.5-0.75-1.5z"/>
  <path d="m323 541q0-1 1-0.75t4.5 1.25 2.25 1.25-1.5 0l-0.25-0.25-3-0.25q-3-0.25-3-1.25z"/>
  <path d="m326.75 309.5l1.25-0.5-1 1.75q-1 1.75-1.25 0.5t1-1.75z"/>
  <path d="m336.25 330.5q1.25-0.5 0.75 1t-1 4 1 2 1 0.5l-0.5 1-2.25 1.5q-2.25 1.5-2.5-0.5t1-5.5 2.5-4z"/>
  <path d="m341.5 397q0-1 1.25-0.25l1.25 0.75 2.5 2q2.5 2 3.25 3.25t1.25 2.75 0 10.5-1 10l-0.5 1-2.5 3.5q-2.5 3.5-3 2t1.5-7 2-13.5-1.25-9.75-3-3-1.75-2.25z"/>
  <path d="m375.25 380.5q-1.25-2.5 0.75-1.25t3.25 3l1.25 1.75 1 3q1 3 1.5 6t0.75 14 1.25 11 0.75 1l-0.25 1-0.5 3q-0.5 3-1.5 1.5t-2 0.5-0.5 6.5 0 7l-0.5 2.5-3.25 2.25q-3.25 2.25-7.25 3.25t-4.25 0.25-1-1-2.5 0.5-2.5 0.5-2.5 0-3 0.75-1.25-0.5-2-0.5-2-1.25-1-2l-1-0.25 1-1.25q1-1.25 2.5-0.5t1.75-0.25 1.25 0.5 2 0 1.25-2.5 1.25-1 1.75 0.5 1.5-2 1.75-2.5 1.25 3 1.75-0.5 1.75-4.5 1.25-1h1l-0.75 5-0.75 5 1.5-2q1.5-2 3-5.5t1.75-2 1.25 1.5 2.25-7.5 1-13.5 1-5.5 0.75-6.5-2.5-12-3.25-7.5z"/>
  <path d="m366.5 158.5l3.5-1 1 0.25q1 0.25 1 1.75t-4.5 0.75-1-1.75z"/>
  <path d="m432 330.5q-0.5-5.5 0.5-2.5l1 3 0.5 5q0.5 5 0.5 19v14l-0.5 1.5-0.5 1.5v-4l-0.5-16q-0.5-16-1-21.5z"/>
  <path d="m471.5 410v-2l2 7q2 7 4.5 20t3 15 0.5 7v5l-5-25q-5-25-5-27z"/>
  <path d="m489.5 713.5q2.5 0 10.5 1t11.75 2.75 4.25 2.75-0.25 4.25-3.75 4.75-8.5 1.75l-5.5 0.25v-1q0-1 6.5-1.75t7.75-1.5 2-2l0.75-1.25-1.5-2q-1.5-2-4.5-3t-5.5-1.5-12 0-10.5 1l-1 0.5-1.25 0.75q-1.25 0.75-1 3.25t8.25 2.25 8.5 1.25 0 2 0.5 0.75 1 1.25-7.5-0.25-10-2-3.25-2.25 0-4.75 2.75-4.25 5.5-2 6-1z"/>
  <path d="m476.5 415q-1-9 0-5.5l1 3.5 0.5 1q0.5 1 2 8.5t4 20.5 2.5 16.5v3.5l-1.5-6.5q-1.5-6.5-4-18.5t-3-13-1.5-10z"/>
  <path d="m486 435q-0.5-5 0.5-2l1 3-0.5 2q-0.5 2-1-3z"/>
  <path d="m485.5 483.5q0-4.5 1 1t0.5 7-1-1l-0.5-2.5v-4.5z"/>
  <path d="m492 260.25l1-0.25-1 1.75q-1 1.75-2 2l-1 0.25 1-1.75q1-1.75 2-2z"/>
  <path d="m495 718.5h4l0.25 0.25q0.25 0.25 0.5 1.75t-4.75 1.5-4.5-1.75l0.5-1.75h4z"/>
  <path d="m494 475.5l-0.5-6.5 1.5 6.5q1.5 6.5 2 14l0.5 7.5-1.5-7.5q-1.5-7.5-2-14z"/>
  <path d="m502.5 273.25q0.5-1.25 2-0.5l1.5 0.75-0.25 0.25q-0.25 0.25-0.5 1.75t0.75 1.5 0.5 2-2 1.25l-1.5-0.75 0.25-0.25q0.25-0.25 0.5-1.75t-0.75-2.25-0.5-2z"/>
  <path d="m519 513q0-1 15.5-0.25l15.5 0.75-5.5 0.25q-5.5 0.25-5.5 1.25v1l0.5 0.75q0.5 0.75-0.5 1.75t4 1.5-11.5 0.5h-16.5l5-0.5 5-0.5-1-1q-1-1-11-1.5l-10-0.5 3.5-0.5q3.5-0.5 8-1.25t4.5-1.75z"/>
  <path d="m511.25 254l-0.25-1 1.25 1q1.25 1 0.25 1t-1.25-1z"/>
  <path d="m522 224.5q1 0 1.5 1.25t2.25 2.25l1.75 1 0.5 3q0.5 3-0.75 4.25t-3-1.5-2-4.5-1.25-2-0.5-2 1.5-1.75z"/>
  <path d="m521 241.5q0.5-0.5 2 2t2.5 7.5-0.5 2l-1.5-3-1.5-4q-1.5-4-1-4.5z"/>
  <path d="m521.5 258.5v-1.5l0.25 1.25q0.25 1.25 0 1.5t-0.25-1.25z"/>
  <path d="m527 241v-2l1.25 0.5q1.25 0.5 1.5 2t-1.25 1.5-1.5-2z"/>
  <path d="m539.5 544.5q6.5 0 7.75 1.25t1 2.75 2.75 1.75l3 0.25-10.5 0.25q-10.5 0.25-11.25-1.25l-0.75-1.5-1.75-1.25q-1.75-1.25 0.75-1.75t9-0.5z"/>
  <path d="m531 245.25l1-0.25v4l-1.25-0.5q-1.25-0.5-1-1.75t1.25-1.5z"/>
  <path d="m531 253.5v-1.5h1q1 0 1 1.5v1.5h-1q-1 0-1-1.5z"/>
  <path d="m534.75 248.5q-0.75-3.5 1.5-2.5t2 2 0.75 1 1.5 6-1 6-1.5-1.75-0.25-2-0.75-2.25l-0.5-2-0.5-0.5q-0.5-0.5-1.25-4z"/>
  <path d="m541.5 267.5h1.5l-1.75 1.25q-1.75 1.25-1.5 0t1.75-1.25z"/>
  <path d="m569.5 528q8.5-0.5 14 0.25t5.5 2.25 3.5 2.25l3.5 0.75-6.5 1.25q-6.5 1.25-6.5 2.25t-2 1.25l-2 0.25 0.5-0.5q0.5-0.5-3.5-2t-11-2l-7-0.5 2-0.5q2-0.5 2.5-0.5t4.75-0.75 5-1.5l0.75-0.75-6-0.5q-6-0.5 2.5-1zm12.5 5v-1h4v1q0 1-2 1t-2-1z"/>
  <path d="m563 643q-0.5-6 0.5-2.5l1 3.5v3.5q0 3.5-0.5 2.5t-1-7z"/>
  <path d="m610.25 546.75q4.25-0.75 5.5-0.5t1.75 0.25 13 0.5l12.5 0.5-0.75 0.75q-0.75 0.75-1 2.25t-1.75 2-1-0.75-2-2-1.25 1.25 1.5 2.25-9-0.5-9.5-1 2.25-0.5 2.5-1.75-8.5-1.75l-8.5-0.25 4.25-0.75z"/>
  <path d="m649 647.5q-0.5-4.5 0.5-1.5l1 3 0.5 1.5q0.5 1.5 0 3.5t-1 0l-0.5-2-0.5-4.5z"/>
  <path d="m659.5 640q-1-5 1-2t2 7-1 2l-1-2-1-5z"/>
  <path d="m663.5 631l-2-12 2 7q2 7 4 14.5t3 10.5 0.5 3.5-1-0.5l-0.5-1-2-5q-2-5-4-17z"/>
 </g>
</svg>
