<svg width="1440" height="26" viewBox="0 0 1440 26" fill="none" xmlns="http://www.w3.org/2000/svg">
<g opacity="0.25">
<path d="M0 6.53467C34.2864 6.53467 34.2863 19.1761 68.5727 19.1761C102.859 19.1761 102.859 6.53467 137.132 6.53467C171.405 6.53467 171.418 19.1761 205.705 19.1761C239.991 19.1761 239.991 6.53467 274.277 6.53467C308.564 6.53467 308.564 19.1761 342.837 19.1761C377.11 19.1761 377.123 6.53467 411.409 6.53467C445.696 6.53467 445.696 19.1761 479.982 19.1761C514.268 19.1761 514.268 6.53467 548.555 6.53467C582.841 6.53467 582.828 19.1761 617.114 19.1761C651.4 19.1761 651.4 6.53467 685.687 6.53467C719.973 6.53467 719.973 19.1761 754.246 19.1761C788.519 19.1761 788.532 6.53467 822.819 6.53467C857.105 6.53467 857.105 19.1761 891.405 19.1761C925.705 19.1761 925.678 6.53467 959.964 6.53467C994.251 6.53467 994.264 19.1761 1028.55 19.1761C1062.84 19.1761 1062.84 6.53467 1097.11 6.53467C1131.38 6.53467 1131.4 19.1761 1165.68 19.1761C1199.97 19.1761 1199.97 6.53467 1234.27 6.53467C1268.57 6.53467 1268.55 19.1761 1302.84 19.1761C1337.13 19.1761 1337.13 6.53467 1371.41 6.53467C1405.7 6.53467 1405.71 19.1761 1440 19.1761" fill="black"/>
<path d="M0 6.53467C34.2864 6.53467 34.2863 19.1761 68.5727 19.1761C102.859 19.1761 102.859 6.53467 137.132 6.53467C171.405 6.53467 171.418 19.1761 205.705 19.1761C239.991 19.1761 239.991 6.53467 274.277 6.53467C308.564 6.53467 308.564 19.1761 342.837 19.1761C377.11 19.1761 377.123 6.53467 411.409 6.53467C445.696 6.53467 445.696 19.1761 479.982 19.1761C514.268 19.1761 514.268 6.53467 548.555 6.53467C582.841 6.53467 582.828 19.1761 617.114 19.1761C651.4 19.1761 651.4 6.53467 685.687 6.53467C719.973 6.53467 719.973 19.1761 754.246 19.1761C788.519 19.1761 788.532 6.53467 822.819 6.53467C857.105 6.53467 857.105 19.1761 891.405 19.1761C925.705 19.1761 925.678 6.53467 959.964 6.53467C994.251 6.53467 994.264 19.1761 1028.55 19.1761C1062.84 19.1761 1062.84 6.53467 1097.11 6.53467C1131.38 6.53467 1131.4 19.1761 1165.68 19.1761C1199.97 19.1761 1199.97 6.53467 1234.27 6.53467C1268.57 6.53467 1268.55 19.1761 1302.84 19.1761C1337.13 19.1761 1337.13 6.53467 1371.41 6.53467C1405.7 6.53467 1405.71 19.1761 1440 19.1761" stroke="black" stroke-width="13" stroke-miterlimit="10"/>
</g>
</svg>
