<?xml version="1.0" encoding="utf-8"?>
<!-- Generator: Adobe Illustrator 18.1.1, SVG Export Plug-In . SVG Version: 6.00 Build 0)  -->
<svg version="1.1" id="Layer_1" xmlns="http://www.w3.org/2000/svg" xmlns:xlink="http://www.w3.org/1999/xlink" x="0px" y="0px"
	 viewBox="0 0 3000 3000" enable-background="new 0 0 3000 3000" xml:space="preserve">
<g>
	<rect fill="#FFD28F" width="3000" height="3000"/>
	<g>
		<rect x="801.2" y="483.4" fill="#E0B97E" width="1610.9" height="2245.6"/>
		<rect x="693.2" y="375.4" fill="#FFFFFF" width="1610.9" height="2245.6"/>
		<g>
			<g>
				<polygon fill="#D43535" points="901.6,521.4 1055.5,999.6 979.5,956.1 946,1044.6 792.1,566.5 				"/>
				<polygon fill="#D43535" points="892.1,566.5 738.2,1044.6 704.7,956.1 628.7,999.6 782.7,521.4 				"/>
				<path fill="#FE4040" d="M1075.7,528.5c0,13.4-18,25-20.3,37.7c-2.3,13,10.7,30.1,6.2,42.3c-4.5,12.4-25.4,17.1-32,28.4
					c-6.6,11.3-0.2,31.9-8.6,41.9c-8.4,10-29.7,7.4-39.7,15.8s-11,29.8-22.3,36.4c-11.2,6.5-30.3-3.3-42.8,1.2
					c-12.1,4.4-20.4,24.2-33.6,26.5c-12.7,2.3-27.2-13.5-40.6-13.5c-13.4,0-27.9,15.8-40.6,13.5c-13-2.3-21.3-22.1-33.6-26.5
					c-12.4-4.5-31.4,5.2-42.8-1.2c-11.3-6.6-12.4-28-22.3-36.4c-10-8.4-31.3-5.8-39.7-15.8c-8.4-10-2-30.5-8.6-41.9
					c-6.5-11.2-27.5-16-32-28.4c-4.4-12.1,8.5-29.3,6.2-42.3c-2.3-12.7-20.3-24.3-20.3-37.7s18-25,20.3-37.7
					c2.3-13-10.7-30.1-6.2-42.3c4.5-12.4,25.4-17.1,32-28.4c6.6-11.3,0.2-31.9,8.6-41.9s29.7-7.4,39.7-15.8s11-29.8,22.3-36.4
					c11.2-6.5,30.3,3.3,42.8-1.2c12.1-4.4,20.4-24.2,33.6-26.5c12.7-2.3,27.2,13.5,40.6,13.5c13.4,0,27.9-15.8,40.6-13.5
					c13,2.3,21.3,22.1,33.6,26.5c12.4,4.5,31.4-5.2,42.8,1.2c11.3,6.6,12.4,28,22.3,36.4c10,8.4,31.3,5.8,39.7,15.8
					c8.4,10,2,30.5,8.6,41.9c6.5,11.2,27.5,16,32,28.4c4.4,12.1-8.5,29.3-6.2,42.3C1057.6,503.6,1075.7,515.2,1075.7,528.5z"/>
				<circle fill="#D43535" cx="842.1" cy="528.5" r="148.7"/>
			</g>
			<g>
				<path fill="#FFFFFF" d="M766.4,591.6h-35.2L779,465.4h36.1l47.8,126.2h-35.2l-8.1-22.5h-45.1L766.4,591.6z M782.6,545.6h28.8
					L797,503.2L782.6,545.6z"/>
				<path fill="#FFFFFF" d="M922.3,515.8H953v25.2h-30.6v30.6h-25.2v-30.6h-30.6v-25.2h30.6v-30.6h25.2V515.8z"/>
			</g>
		</g>
		<g>
			<g>
				<rect x="1742.1" y="567.7" fill="#D6E7FF" width="365.5" height="382.4"/>
				<g>
					<circle fill="#3BAB80" cx="1924.9" cy="698.3" r="101.8"/>
					<path fill="#3BAB80" d="M1846.2,787.3c21,18.5,48.4,29.7,78.6,29.7s57.7-11.2,78.6-29.7c45.8,27,76.6,76.8,76.6,133.9h-310.2
						C1769.7,864.2,1800.3,814.3,1846.2,787.3z"/>
				</g>
			</g>
			<rect x="1253.4" y="585.8" fill="#FFD1D3" width="401.6" height="28.9"/>
			<rect x="1253.4" y="662.9" fill="#E0E0E0" width="401.6" height="28.9"/>
			<rect x="1253.4" y="740" fill="#E0E0E0" width="401.6" height="28.9"/>
			<rect x="1253.4" y="817.1" fill="#E0E0E0" width="401.6" height="28.9"/>
			<rect x="1253.4" y="894.2" fill="#E0E0E0" width="401.6" height="28.9"/>
		</g>
		<g>
			<rect x="889.6" y="1118" fill="#E0E0E0" width="401.6" height="28.9"/>
			<rect x="889.6" y="1195.1" fill="#E0E0E0" width="765.8" height="28.9"/>
			<rect x="889.6" y="1272.2" fill="#E0E0E0" width="765.8" height="28.9"/>
		</g>
		<g>
			<path fill="#E0E0E0" d="M2094.9,2379.5h-376.1c-7,0-12.8-5.7-12.8-12.8v-3.4c0-7,5.7-12.8,12.8-12.8h376.1
				c7,0,12.8,5.7,12.8,12.8v3.4C2107.6,2373.8,2101.9,2379.5,2094.9,2379.5z"/>
			<path fill="#E0E0E0" d="M2047.4,2456.6h-281.1c-7,0-12.8-5.7-12.8-12.8v-3.4c0-7,5.7-12.8,12.8-12.8h281.1
				c7,0,12.8,5.7,12.8,12.8v3.4C2060.1,2450.9,2054.4,2456.6,2047.4,2456.6z"/>
		</g>
		<g>
			<path fill="#FFC2C4" d="M1860.8,1423.6h-740.3c-7,0-12.7-5.7-12.7-12.8v-3.4c0-7,5.7-12.8,12.7-12.8h740.3
				c7,0,12.8,5.7,12.8,12.8v3.4C1873.6,1417.9,1867.9,1423.6,1860.8,1423.6z"/>
			<rect x="889.6" y="1487.8" fill="#FFAEB1" width="1218" height="61.3"/>
			<rect x="889.6" y="1549" fill="#FFFAA1" width="1218" height="61.3"/>
			<rect x="889.6" y="1610.3" fill="#FF9DFC" width="1218" height="61.3"/>
			<rect x="889.6" y="1671.6" fill="#FFFAA1" width="1218" height="61.3"/>
			<rect x="889.6" y="1732.8" fill="#FF9DFC" width="1218" height="61.3"/>
			<rect x="889.6" y="1794.1" fill="#FFFAA1" width="1218" height="61.3"/>
			<rect x="889.6" y="1855.3" fill="#FF9DFC" width="1218" height="61.3"/>
			<rect x="889.6" y="1916.6" fill="#FFFAA1" width="1218" height="61.3"/>
			<rect x="889.6" y="1977.9" fill="#FF9DFC" width="1218" height="61.3"/>
			<rect x="889.6" y="2039.1" fill="#FFFAA1" width="1218" height="61.3"/>
			<g opacity="0.5">
				<rect x="1490.7" y="1487.8" opacity="0.5" fill="#9E9D9D" width="15.9" height="612.6"/>
				<rect x="1791.4" y="1487.8" opacity="0.5" fill="#9E9D9D" width="15.9" height="612.6"/>
				<rect x="1173.8" y="1487.8" opacity="0.5" fill="#9E9D9D" width="15.9" height="612.6"/>
			</g>
		</g>
	</g>
</g>
</svg>
